<svg width="640" height="640" viewBox="0 0 640 640" fill="none" xmlns="http://www.w3.org/2000/svg">
  <rect width="640" height="640" rx="96" fill="#F8F8F7"/>
  <path d="M374.244 116.689C339.753 87.2971 289.398 85.0558 252.428 111.283C228.15 128.509 211.532 154.207 204.972 182.873C169.95 187.607 137.842 207.064 117.767 237.383C89.7246 279.745 88.6932 334.469 115.116 377.863C105.466 404.51 103.951 433.819 111.385 461.413C126.029 515.763 172.445 555.317 227.994 561.227C252.29 590.963 287.849 608.77 326.254 608.77C386.352 608.77 438.319 565.193 451.601 506.765C493.495 496.59 530.055 469.84 548.334 429.136C570.766 379.19 566.016 321.071 535.746 275.656C541.598 247.552 539.149 217.701 526.626 189.751C503.636 138.421 451.898 105.432 396.262 105.432C388.759 105.432 381.336 106.032 374.244 107.177V116.689Z" fill="url(#paint0_linear_1_2)"/>
  <path d="M257.8 245.426C251.923 236.265 239.428 233.61 230.28 239.494C221.132 245.378 218.49 257.886 224.367 267.048L243.635 297.117L223.942 327.85C218.065 337.012 220.708 349.52 229.856 355.404C239.004 361.287 251.499 358.633 257.376 349.471L283.575 308.592C287.966 301.748 287.966 293.001 283.575 286.157L257.8 245.426Z" fill="white"/>
  <rect x="318.274" y="289.88" width="129.274" height="31.4434" rx="15.7217" fill="white"/>
  <defs>
    <linearGradient id="paint0_linear_1_2" x1="320" y1="105.432" x2="320" y2="608.77" gradientUnits="userSpaceOnUse">
      <stop stop-color="#B8AEFF"/>
      <stop offset="0.5" stop-color="#7FA4FF"/>
      <stop offset="1" stop-color="#3B47FF"/>
    </linearGradient>
  </defs>
</svg>
