<svg width="1600" height="980" viewBox="0 0 1600 980" fill="none" xmlns="http://www.w3.org/2000/svg">
  <rect width="1600" height="980" rx="28" fill="#111317"/>
  <rect x="18" y="18" width="260" height="944" rx="24" fill="#1A1C20"/>
  <rect x="36" y="34" width="12" height="12" rx="6" fill="#FF5F57"/>
  <rect x="56" y="34" width="12" height="12" rx="6" fill="#FFBD2E"/>
  <rect x="76" y="34" width="12" height="12" rx="6" fill="#28C840"/>
  <rect x="36" y="88" width="188" height="36" rx="12" fill="#2A2D33"/>
  <text x="56" y="112" fill="#F5F7FB" font-family="Arial, sans-serif" font-size="18" font-weight="600">Plugins</text>
  <text x="36" y="168" fill="#7C838F" font-family="Arial, sans-serif" font-size="16">Threads</text>
  <rect x="36" y="200" width="196" height="40" rx="12" fill="#23262D"/>
  <text x="56" y="226" fill="#CDD3DD" font-family="Arial, sans-serif" font-size="17">tmp-codex-kit-test</text>
  <rect x="36" y="250" width="196" height="40" rx="12" fill="#23262D"/>
  <text x="56" y="276" fill="#CDD3DD" font-family="Arial, sans-serif" font-size="17">CodexKit</text>
  <rect x="300" y="18" width="1282" height="944" rx="24" fill="#13161B"/>
  <text x="875" y="120" text-anchor="middle" fill="#F5F7FB" font-family="Arial, sans-serif" font-size="42" font-weight="600">Make Codex work your way</text>
  <rect x="620" y="166" width="504" height="40" rx="12" fill="#1F2228" stroke="#30343C"/>
  <text x="650" y="192" fill="#7C838F" font-family="Arial, sans-serif" font-size="16">Search plugins</text>
  <rect x="1134" y="166" width="152" height="40" rx="12" fill="#1F2228" stroke="#30343C"/>
  <text x="1160" y="192" fill="#F5F7FB" font-family="Arial, sans-serif" font-size="16">Codex Kit Local</text>
  <rect x="1298" y="166" width="70" height="40" rx="12" fill="#1F2228" stroke="#30343C"/>
  <text x="1325" y="192" fill="#F5F7FB" font-family="Arial, sans-serif" font-size="16">All</text>
  <text x="620" y="254" fill="#F5F7FB" font-family="Arial, sans-serif" font-size="16" font-weight="600">Developer Tools</text>
  <line x1="620" y1="276" x2="1310" y2="276" stroke="#262A31"/>
  <rect x="632" y="310" width="540" height="76" rx="18" fill="#151920"/>
  <rect x="648" y="324" width="46" height="46" rx="12" fill="#0D0F13" stroke="#343A45"/>
  <circle cx="664" cy="340" r="7" stroke="#E7ECF6" stroke-width="3"/>
  <circle cx="680" cy="340" r="7" stroke="#E7ECF6" stroke-width="3"/>
  <circle cx="664" cy="356" r="7" stroke="#E7ECF6" stroke-width="3"/>
  <circle cx="680" cy="356" r="7" stroke="#E7ECF6" stroke-width="3"/>
  <text x="712" y="340" fill="#F5F7FB" font-family="Arial, sans-serif" font-size="22" font-weight="700">Codex Kit</text>
  <text x="812" y="340" fill="#8D95A3" font-family="Arial, sans-serif" font-size="20">codex-kit-local</text>
  <text x="712" y="367" fill="#AEB6C2" font-family="Arial, sans-serif" font-size="18">Installable Codex plugin for Codex Kit.</text>
  <rect x="1070" y="325" width="42" height="42" rx="14" fill="#23272E"/>
  <path d="M1091 337V355" stroke="#F5F7FB" stroke-width="3" stroke-linecap="round"/>
  <path d="M1082 346H1100" stroke="#F5F7FB" stroke-width="3" stroke-linecap="round"/>
  <rect x="1360" y="24" width="112" height="42" rx="14" fill="#F4F6FA"/>
  <text x="1416" y="50" text-anchor="middle" fill="#111317" font-family="Arial, sans-serif" font-size="18" font-weight="700">Create</text>
  <rect x="1258" y="24" width="92" height="42" rx="14" fill="#23272E"/>
  <text x="1304" y="50" text-anchor="middle" fill="#F5F7FB" font-family="Arial, sans-serif" font-size="18" font-weight="600">Manage</text>
</svg>
